<svg width="3394" height="1877" viewBox="0 0 3394 1877" fill="none" xmlns="http://www.w3.org/2000/svg">
<g clip-path="url(#clip0_346_12)">
<path d="M937.967 1825.03C702.895 1824.79 477.525 1731.27 311.303 1565.01C145.082 1398.75 51.5912 1173.32 51.3418 938.195V51.3555H3328.12L3106.42 938.195L3328.12 1825.03H937.967Z" fill="#041233"/>
<path d="M3008.45 102.711H3262.33L3239.57 193.952L3200.78 349.115L3053.51 938.196L3200.78 1527.28L3239.57 1682.44L3262.33 1773.68H938.596C717.126 1773.43 504.798 1685.33 348.18 1528.71C191.562 1372.08 103.443 1159.72 103.152 938.196V102.711H3009.07M3009.07 0.00195312H0.628906V938.196C0.91978 1186.93 99.8375 1425.4 275.678 1601.28C451.519 1777.16 689.92 1876.1 938.596 1876.39H3394.54L3363.13 1748.71L3340.2 1657.47L3301.43 1502.31L3160.12 938.196L3301.43 373.93L3340.2 218.766L3363.13 127.522L3394.54 0.00195312H3009.07Z" fill="white"/>
<path d="M946.922 620.806H1583.9L1420.77 302.315H309.932V939.449C309.932 1108.43 377.045 1270.49 496.502 1389.98C615.96 1509.46 777.983 1576.59 946.922 1576.59H1583.9V780.049H1265.49V1257.94H946.922C862.473 1257.94 781.48 1224.39 721.766 1164.66C662.052 1104.93 628.503 1023.92 628.503 939.449V620.806H946.922Z" fill="white"/>
<path d="M3017.56 302.315H2698.98H1601.02L1756.77 620.805H2539.78L2497.86 780.05H2221.21V1098.7H2497.86L2539.78 1257.94H1743.43V1576.59H3017.56L2858.35 939.452L3017.56 302.315Z" fill="#17B878"/>
</g>
<defs>
<clipPath id="clip0_346_12">
<rect width="3393.9" height="1876.39" fill="white"/>
</clipPath>
</defs>
</svg>
