<svg xmlns="http://www.w3.org/2000/svg" width="175" height="40" viewBox="0 0 175 40" fill="none">
<g clip-path="url(#clip0_710_6239)">
<path d="M31.6 20.2273C31.6 19.5182 31.5364 18.8364 31.4182 18.1818H22V22.05H27.3818C27.15 23.3 26.4455 24.3591 25.3864 25.0682V27.5773H28.6182C30.5091 25.8364 31.6 23.2727 31.6 20.2273Z" fill="#4285F4"/>
<path d="M22 30C24.7 30 26.9636 29.1045 28.6181 27.5773L25.3863 25.0682C24.4909 25.6682 23.3454 26.0227 22 26.0227C19.3954 26.0227 17.1909 24.2636 16.4045 21.9H13.0636V24.4909C14.7091 27.7591 18.0909 30 22 30Z" fill="#34A853"/>
<path d="M16.4045 21.9C16.2045 21.3 16.0909 20.6591 16.0909 20C16.0909 19.3409 16.2045 18.7 16.4045 18.1V15.5091H13.0636C12.3864 16.8591 12 18.3864 12 20C12 21.6136 12.3864 23.1409 13.0636 24.4909L16.4045 21.9Z" fill="#FBBC04"/>
<path d="M22 13.9773C23.4681 13.9773 24.7863 14.4818 25.8227 15.4727L28.6909 12.6045C26.9591 10.9909 24.6954 10 22 10C18.0909 10 14.7091 12.2409 13.0636 15.5091L16.4045 18.1C17.1909 15.7364 19.3954 13.9773 22 13.9773Z" fill="#E94235"/>
</g>
<path d="M48.248 22.4365C48.248 22.2314 48.2161 22.0492 48.1523 21.8896C48.0931 21.7301 47.986 21.5843 47.8311 21.4521C47.6761 21.32 47.4574 21.1924 47.1748 21.0693C46.8968 20.9417 46.5413 20.8118 46.1084 20.6797C45.6344 20.5339 45.1969 20.3721 44.7959 20.1943C44.3994 20.012 44.0531 19.8024 43.7568 19.5654C43.4606 19.3239 43.2305 19.0482 43.0664 18.7383C42.9023 18.4238 42.8203 18.0615 42.8203 17.6514C42.8203 17.2458 42.9046 16.8766 43.0732 16.5439C43.2464 16.2113 43.4902 15.9242 43.8047 15.6826C44.1237 15.4365 44.4997 15.2474 44.9326 15.1152C45.3656 14.9785 45.8441 14.9102 46.3682 14.9102C47.1064 14.9102 47.7422 15.0469 48.2754 15.3203C48.8132 15.5938 49.2256 15.9606 49.5127 16.4209C49.8044 16.8812 49.9502 17.3893 49.9502 17.9453H48.248C48.248 17.6172 48.1774 17.3278 48.0361 17.0771C47.8994 16.8219 47.6898 16.6214 47.4072 16.4756C47.1292 16.3298 46.776 16.2568 46.3477 16.2568C45.9421 16.2568 45.6048 16.3184 45.3359 16.4414C45.0671 16.5645 44.8665 16.7308 44.7344 16.9404C44.6022 17.1501 44.5361 17.387 44.5361 17.6514C44.5361 17.8382 44.5794 18.0091 44.666 18.1641C44.7526 18.3145 44.8848 18.4557 45.0625 18.5879C45.2402 18.7155 45.4635 18.8363 45.7324 18.9502C46.0013 19.0641 46.318 19.1735 46.6826 19.2783C47.234 19.4424 47.7148 19.6247 48.125 19.8252C48.5352 20.0212 48.877 20.2445 49.1504 20.4951C49.4238 20.7458 49.6289 21.0306 49.7656 21.3496C49.9023 21.6641 49.9707 22.0218 49.9707 22.4229C49.9707 22.8421 49.8864 23.2204 49.7178 23.5576C49.5492 23.8903 49.3076 24.1751 48.9932 24.4121C48.6833 24.6445 48.3096 24.8245 47.8721 24.9521C47.4391 25.0752 46.9561 25.1367 46.4229 25.1367C45.9443 25.1367 45.4727 25.0729 45.0078 24.9453C44.5475 24.8177 44.1283 24.624 43.75 24.3643C43.3717 24.0999 43.071 23.7718 42.8477 23.3799C42.6243 22.9834 42.5127 22.5208 42.5127 21.9922H44.2285C44.2285 22.3158 44.2832 22.5915 44.3926 22.8193C44.5065 23.0472 44.6637 23.234 44.8643 23.3799C45.0648 23.5212 45.2972 23.626 45.5615 23.6943C45.8304 23.7627 46.1175 23.7969 46.4229 23.7969C46.8239 23.7969 47.1589 23.7399 47.4277 23.626C47.7012 23.512 47.9062 23.3525 48.043 23.1475C48.1797 22.9424 48.248 22.7054 48.248 22.4365ZM53.0879 17.6035V25H51.4336V17.6035H53.0879ZM51.3242 15.6621C51.3242 15.4115 51.4062 15.2041 51.5703 15.04C51.7389 14.8714 51.9714 14.7871 52.2676 14.7871C52.5592 14.7871 52.7894 14.8714 52.958 15.04C53.1266 15.2041 53.2109 15.4115 53.2109 15.6621C53.2109 15.9082 53.1266 16.1133 52.958 16.2773C52.7894 16.4414 52.5592 16.5234 52.2676 16.5234C51.9714 16.5234 51.7389 16.4414 51.5703 16.2773C51.4062 16.1133 51.3242 15.9082 51.3242 15.6621ZM59.6299 17.6035H61.127V24.7949C61.127 25.4603 60.9857 26.0254 60.7031 26.4902C60.4206 26.9551 60.0264 27.3083 59.5205 27.5498C59.0146 27.7959 58.429 27.9189 57.7637 27.9189C57.4811 27.9189 57.1667 27.8779 56.8203 27.7959C56.4785 27.7139 56.1458 27.5817 55.8223 27.3994C55.5033 27.2217 55.2367 26.987 55.0225 26.6953L55.7949 25.7246C56.0592 26.0391 56.3509 26.2692 56.6699 26.415C56.9889 26.5609 57.3239 26.6338 57.6748 26.6338C58.0531 26.6338 58.3743 26.5632 58.6387 26.4219C58.9076 26.2852 59.1149 26.0824 59.2607 25.8135C59.4066 25.5446 59.4795 25.2165 59.4795 24.8291V19.2783L59.6299 17.6035ZM54.6055 21.3838V21.2402C54.6055 20.6797 54.6738 20.1693 54.8105 19.709C54.9473 19.2441 55.1432 18.8454 55.3984 18.5127C55.6536 18.1755 55.9635 17.918 56.3281 17.7402C56.6927 17.5579 57.1051 17.4668 57.5654 17.4668C58.0439 17.4668 58.4518 17.5534 58.7891 17.7266C59.1309 17.8997 59.4157 18.1481 59.6436 18.4717C59.8714 18.7907 60.0492 19.1735 60.1768 19.6201C60.3089 20.0622 60.4069 20.5544 60.4707 21.0967V21.5547C60.4115 22.0833 60.3112 22.5664 60.1699 23.0039C60.0286 23.4414 59.8418 23.8197 59.6094 24.1387C59.377 24.4577 59.0898 24.7038 58.748 24.877C58.4108 25.0501 58.012 25.1367 57.5518 25.1367C57.1006 25.1367 56.6927 25.0433 56.3281 24.8564C55.9681 24.6696 55.6582 24.4076 55.3984 24.0703C55.1432 23.7331 54.9473 23.3366 54.8105 22.8809C54.6738 22.4206 54.6055 21.9215 54.6055 21.3838ZM56.2529 21.2402V21.3838C56.2529 21.721 56.2848 22.0355 56.3486 22.3271C56.417 22.6188 56.5195 22.8763 56.6562 23.0996C56.7975 23.3184 56.9753 23.4915 57.1895 23.6191C57.4082 23.7422 57.6657 23.8037 57.9619 23.8037C58.3493 23.8037 58.666 23.7217 58.9121 23.5576C59.1628 23.3936 59.3542 23.1725 59.4863 22.8945C59.623 22.612 59.7188 22.2975 59.7734 21.9512V20.7139C59.7461 20.445 59.6891 20.1943 59.6025 19.9619C59.5205 19.7295 59.4089 19.5267 59.2676 19.3535C59.1263 19.1758 58.9486 19.0391 58.7344 18.9434C58.5202 18.8431 58.2673 18.793 57.9756 18.793C57.6794 18.793 57.4219 18.8568 57.2031 18.9844C56.9844 19.112 56.8044 19.2874 56.6631 19.5107C56.5264 19.734 56.4238 19.9938 56.3555 20.29C56.2871 20.5863 56.2529 20.903 56.2529 21.2402ZM64.4697 19.1826V25H62.8223V17.6035H64.374L64.4697 19.1826ZM64.1758 21.0283L63.6426 21.0215C63.6471 20.4974 63.7201 20.0166 63.8613 19.5791C64.0072 19.1416 64.2077 18.7656 64.4629 18.4512C64.7227 18.1367 65.0326 17.8952 65.3926 17.7266C65.7526 17.5534 66.1536 17.4668 66.5957 17.4668C66.9512 17.4668 67.2725 17.5169 67.5596 17.6172C67.8512 17.7129 68.0996 17.8701 68.3047 18.0889C68.5143 18.3076 68.6738 18.5924 68.7832 18.9434C68.8926 19.2897 68.9473 19.7158 68.9473 20.2217V25H67.293V20.2148C67.293 19.8594 67.2406 19.5791 67.1357 19.374C67.0355 19.1644 66.8874 19.0163 66.6914 18.9297C66.5 18.8385 66.2607 18.793 65.9736 18.793C65.6911 18.793 65.4382 18.8522 65.2148 18.9707C64.9915 19.0892 64.8024 19.251 64.6475 19.4561C64.4971 19.6611 64.3809 19.8981 64.2988 20.167C64.2168 20.4359 64.1758 20.723 64.1758 21.0283ZM75.8789 17.6035V25H74.2246V17.6035H75.8789ZM74.1152 15.6621C74.1152 15.4115 74.1973 15.2041 74.3613 15.04C74.5299 14.8714 74.7624 14.7871 75.0586 14.7871C75.3503 14.7871 75.5804 14.8714 75.749 15.04C75.9176 15.2041 76.002 15.4115 76.002 15.6621C76.002 15.9082 75.9176 16.1133 75.749 16.2773C75.5804 16.4414 75.3503 16.5234 75.0586 16.5234C74.7624 16.5234 74.5299 16.4414 74.3613 16.2773C74.1973 16.1133 74.1152 15.9082 74.1152 15.6621ZM79.3174 19.1826V25H77.6699V17.6035H79.2217L79.3174 19.1826ZM79.0234 21.0283L78.4902 21.0215C78.4948 20.4974 78.5677 20.0166 78.709 19.5791C78.8548 19.1416 79.0553 18.7656 79.3105 18.4512C79.5703 18.1367 79.8802 17.8952 80.2402 17.7266C80.6003 17.5534 81.0013 17.4668 81.4434 17.4668C81.7988 17.4668 82.1201 17.5169 82.4072 17.6172C82.6989 17.7129 82.9473 17.8701 83.1523 18.0889C83.362 18.3076 83.5215 18.5924 83.6309 18.9434C83.7402 19.2897 83.7949 19.7158 83.7949 20.2217V25H82.1406V20.2148C82.1406 19.8594 82.0882 19.5791 81.9834 19.374C81.8831 19.1644 81.735 19.0163 81.5391 18.9297C81.3477 18.8385 81.1084 18.793 80.8213 18.793C80.5387 18.793 80.2858 18.8522 80.0625 18.9707C79.8392 19.0892 79.6501 19.251 79.4951 19.4561C79.3447 19.6611 79.2285 19.8981 79.1465 20.167C79.0645 20.4359 79.0234 20.723 79.0234 21.0283ZM90.9727 23.3594L92.6816 17.6035H93.7344L93.4473 19.3262L91.7246 25H90.7812L90.9727 23.3594ZM89.9678 17.6035L91.3008 23.3867L91.4102 25H90.3574L88.3545 17.6035H89.9678ZM95.334 23.3184L96.626 17.6035H98.2324L96.2363 25H95.1836L95.334 23.3184ZM93.9121 17.6035L95.6006 23.291L95.8125 25H94.8691L93.126 19.3193L92.8389 17.6035H93.9121ZM101.117 17.6035V25H99.4629V17.6035H101.117ZM99.3535 15.6621C99.3535 15.4115 99.4355 15.2041 99.5996 15.04C99.7682 14.8714 100.001 14.7871 100.297 14.7871C100.589 14.7871 100.819 14.8714 100.987 15.04C101.156 15.2041 101.24 15.4115 101.24 15.6621C101.24 15.9082 101.156 16.1133 100.987 16.2773C100.819 16.4414 100.589 16.5234 100.297 16.5234C100.001 16.5234 99.7682 16.4414 99.5996 16.2773C99.4355 16.1133 99.3535 15.9082 99.3535 15.6621ZM106.312 17.6035V18.8066H102.143V17.6035H106.312ZM103.346 15.792H104.993V22.9561C104.993 23.1839 105.025 23.3594 105.089 23.4824C105.157 23.6009 105.251 23.6807 105.369 23.7217C105.488 23.7627 105.627 23.7832 105.786 23.7832C105.9 23.7832 106.009 23.7764 106.114 23.7627C106.219 23.749 106.303 23.7354 106.367 23.7217L106.374 24.9795C106.237 25.0205 106.078 25.057 105.896 25.0889C105.718 25.1208 105.513 25.1367 105.28 25.1367C104.902 25.1367 104.567 25.0706 104.275 24.9385C103.984 24.8018 103.756 24.5807 103.592 24.2754C103.428 23.9701 103.346 23.5645 103.346 23.0586V15.792ZM109.211 14.5V25H107.57V14.5H109.211ZM108.924 21.0283L108.391 21.0215C108.395 20.5111 108.466 20.0394 108.603 19.6064C108.744 19.1735 108.94 18.7975 109.19 18.4785C109.446 18.1549 109.751 17.9066 110.106 17.7334C110.462 17.5557 110.856 17.4668 111.289 17.4668C111.654 17.4668 111.982 17.5169 112.273 17.6172C112.57 17.7174 112.825 17.8792 113.039 18.1025C113.253 18.3213 113.415 18.6084 113.524 18.9639C113.638 19.3148 113.695 19.7432 113.695 20.249V25H112.041V20.2354C112.041 19.8799 111.989 19.5973 111.884 19.3877C111.784 19.1781 111.635 19.0277 111.439 18.9365C111.243 18.8408 111.004 18.793 110.722 18.793C110.425 18.793 110.163 18.8522 109.936 18.9707C109.712 19.0892 109.525 19.251 109.375 19.4561C109.225 19.6611 109.111 19.8981 109.033 20.167C108.96 20.4359 108.924 20.723 108.924 21.0283ZM126.656 19.9141V23.7148C126.515 23.9017 126.294 24.1068 125.993 24.3301C125.697 24.5488 125.303 24.738 124.811 24.8975C124.318 25.057 123.705 25.1367 122.972 25.1367C122.347 25.1367 121.775 25.0319 121.256 24.8223C120.736 24.6081 120.287 24.2959 119.909 23.8857C119.535 23.4756 119.246 22.9766 119.041 22.3887C118.836 21.7962 118.733 21.1217 118.733 20.3652V19.6748C118.733 18.9229 118.827 18.2529 119.014 17.665C119.205 17.0726 119.479 16.5713 119.834 16.1611C120.189 15.751 120.618 15.4411 121.119 15.2314C121.625 15.0173 122.197 14.9102 122.835 14.9102C123.651 14.9102 124.325 15.0469 124.858 15.3203C125.396 15.5892 125.811 15.9629 126.103 16.4414C126.394 16.9199 126.579 17.4668 126.656 18.082H124.975C124.92 17.7357 124.813 17.4258 124.653 17.1523C124.498 16.8789 124.275 16.6647 123.983 16.5098C123.696 16.3503 123.323 16.2705 122.862 16.2705C122.466 16.2705 122.117 16.3457 121.816 16.4961C121.516 16.6465 121.265 16.8675 121.064 17.1592C120.868 17.4508 120.72 17.8063 120.62 18.2256C120.52 18.6449 120.47 19.1234 120.47 19.6611V20.3652C120.47 20.9121 120.527 21.3975 120.641 21.8213C120.759 22.2451 120.928 22.6029 121.146 22.8945C121.37 23.1862 121.641 23.4072 121.96 23.5576C122.279 23.7035 122.639 23.7764 123.04 23.7764C123.432 23.7764 123.753 23.7445 124.004 23.6807C124.255 23.6123 124.453 23.5326 124.599 23.4414C124.749 23.3457 124.865 23.2546 124.947 23.168V21.1924H122.876V19.9141H126.656ZM128.078 21.3838V21.2266C128.078 20.6934 128.156 20.1989 128.311 19.7432C128.465 19.2829 128.689 18.8841 128.98 18.5469C129.277 18.2051 129.637 17.9408 130.061 17.7539C130.489 17.5625 130.972 17.4668 131.51 17.4668C132.052 17.4668 132.535 17.5625 132.959 17.7539C133.387 17.9408 133.75 18.2051 134.046 18.5469C134.342 18.8841 134.568 19.2829 134.723 19.7432C134.878 20.1989 134.955 20.6934 134.955 21.2266V21.3838C134.955 21.917 134.878 22.4115 134.723 22.8672C134.568 23.3229 134.342 23.7217 134.046 24.0635C133.75 24.4007 133.39 24.665 132.966 24.8564C132.542 25.0433 132.061 25.1367 131.523 25.1367C130.981 25.1367 130.496 25.0433 130.067 24.8564C129.644 24.665 129.284 24.4007 128.987 24.0635C128.691 23.7217 128.465 23.3229 128.311 22.8672C128.156 22.4115 128.078 21.917 128.078 21.3838ZM129.726 21.2266V21.3838C129.726 21.7165 129.76 22.0309 129.828 22.3271C129.896 22.6234 130.004 22.8831 130.149 23.1064C130.295 23.3298 130.482 23.5052 130.71 23.6328C130.938 23.7604 131.209 23.8242 131.523 23.8242C131.829 23.8242 132.093 23.7604 132.316 23.6328C132.544 23.5052 132.731 23.3298 132.877 23.1064C133.023 22.8831 133.13 22.6234 133.198 22.3271C133.271 22.0309 133.308 21.7165 133.308 21.3838V21.2266C133.308 20.8984 133.271 20.5885 133.198 20.2969C133.13 20.0007 133.021 19.7386 132.87 19.5107C132.724 19.2829 132.537 19.1051 132.31 18.9775C132.086 18.8454 131.82 18.7793 131.51 18.7793C131.2 18.7793 130.931 18.8454 130.703 18.9775C130.48 19.1051 130.295 19.2829 130.149 19.5107C130.004 19.7386 129.896 20.0007 129.828 20.2969C129.76 20.5885 129.726 20.8984 129.726 21.2266ZM136.021 21.3838V21.2266C136.021 20.6934 136.099 20.1989 136.254 19.7432C136.409 19.2829 136.632 18.8841 136.924 18.5469C137.22 18.2051 137.58 17.9408 138.004 17.7539C138.432 17.5625 138.915 17.4668 139.453 17.4668C139.995 17.4668 140.479 17.5625 140.902 17.7539C141.331 17.9408 141.693 18.2051 141.989 18.5469C142.285 18.8841 142.511 19.2829 142.666 19.7432C142.821 20.1989 142.898 20.6934 142.898 21.2266V21.3838C142.898 21.917 142.821 22.4115 142.666 22.8672C142.511 23.3229 142.285 23.7217 141.989 24.0635C141.693 24.4007 141.333 24.665 140.909 24.8564C140.485 25.0433 140.005 25.1367 139.467 25.1367C138.924 25.1367 138.439 25.0433 138.011 24.8564C137.587 24.665 137.227 24.4007 136.931 24.0635C136.634 23.7217 136.409 23.3229 136.254 22.8672C136.099 22.4115 136.021 21.917 136.021 21.3838ZM137.669 21.2266V21.3838C137.669 21.7165 137.703 22.0309 137.771 22.3271C137.84 22.6234 137.947 22.8831 138.093 23.1064C138.239 23.3298 138.425 23.5052 138.653 23.6328C138.881 23.7604 139.152 23.8242 139.467 23.8242C139.772 23.8242 140.036 23.7604 140.26 23.6328C140.488 23.5052 140.674 23.3298 140.82 23.1064C140.966 22.8831 141.073 22.6234 141.142 22.3271C141.215 22.0309 141.251 21.7165 141.251 21.3838V21.2266C141.251 20.8984 141.215 20.5885 141.142 20.2969C141.073 20.0007 140.964 19.7386 140.813 19.5107C140.668 19.2829 140.481 19.1051 140.253 18.9775C140.03 18.8454 139.763 18.7793 139.453 18.7793C139.143 18.7793 138.874 18.8454 138.646 18.9775C138.423 19.1051 138.239 19.2829 138.093 19.5107C137.947 19.7386 137.84 20.0007 137.771 20.2969C137.703 20.5885 137.669 20.8984 137.669 21.2266ZM149.017 17.6035H150.514V24.7949C150.514 25.4603 150.372 26.0254 150.09 26.4902C149.807 26.9551 149.413 27.3083 148.907 27.5498C148.401 27.7959 147.816 27.9189 147.15 27.9189C146.868 27.9189 146.553 27.8779 146.207 27.7959C145.865 27.7139 145.533 27.5817 145.209 27.3994C144.89 27.2217 144.623 26.987 144.409 26.6953L145.182 25.7246C145.446 26.0391 145.738 26.2692 146.057 26.415C146.376 26.5609 146.711 26.6338 147.062 26.6338C147.44 26.6338 147.761 26.5632 148.025 26.4219C148.294 26.2852 148.502 26.0824 148.647 25.8135C148.793 25.5446 148.866 25.2165 148.866 24.8291V19.2783L149.017 17.6035ZM143.992 21.3838V21.2402C143.992 20.6797 144.061 20.1693 144.197 19.709C144.334 19.2441 144.53 18.8454 144.785 18.5127C145.04 18.1755 145.35 17.918 145.715 17.7402C146.079 17.5579 146.492 17.4668 146.952 17.4668C147.431 17.4668 147.839 17.5534 148.176 17.7266C148.518 17.8997 148.802 18.1481 149.03 18.4717C149.258 18.7907 149.436 19.1735 149.563 19.6201C149.696 20.0622 149.794 20.5544 149.857 21.0967V21.5547C149.798 22.0833 149.698 22.5664 149.557 23.0039C149.415 23.4414 149.229 23.8197 148.996 24.1387C148.764 24.4577 148.477 24.7038 148.135 24.877C147.798 25.0501 147.399 25.1367 146.938 25.1367C146.487 25.1367 146.079 25.0433 145.715 24.8564C145.355 24.6696 145.045 24.4076 144.785 24.0703C144.53 23.7331 144.334 23.3366 144.197 22.8809C144.061 22.4206 143.992 21.9215 143.992 21.3838ZM145.64 21.2402V21.3838C145.64 21.721 145.672 22.0355 145.735 22.3271C145.804 22.6188 145.906 22.8763 146.043 23.0996C146.184 23.3184 146.362 23.4915 146.576 23.6191C146.795 23.7422 147.052 23.8037 147.349 23.8037C147.736 23.8037 148.053 23.7217 148.299 23.5576C148.549 23.3936 148.741 23.1725 148.873 22.8945C149.01 22.612 149.105 22.2975 149.16 21.9512V20.7139C149.133 20.445 149.076 20.1943 148.989 19.9619C148.907 19.7295 148.796 19.5267 148.654 19.3535C148.513 19.1758 148.335 19.0391 148.121 18.9434C147.907 18.8431 147.654 18.793 147.362 18.793C147.066 18.793 146.809 18.8568 146.59 18.9844C146.371 19.112 146.191 19.2874 146.05 19.5107C145.913 19.734 145.811 19.9938 145.742 20.29C145.674 20.5863 145.64 20.903 145.64 21.2402ZM153.986 14.5V25H152.332V14.5H153.986ZM159.052 25.1367C158.505 25.1367 158.01 25.0479 157.568 24.8701C157.131 24.6878 156.757 24.4349 156.447 24.1113C156.142 23.7878 155.907 23.4072 155.743 22.9697C155.579 22.5322 155.497 22.0605 155.497 21.5547V21.2812C155.497 20.7025 155.581 20.1784 155.75 19.709C155.919 19.2396 156.153 18.8385 156.454 18.5059C156.755 18.1686 157.11 17.9111 157.521 17.7334C157.931 17.5557 158.375 17.4668 158.854 17.4668C159.382 17.4668 159.845 17.5557 160.241 17.7334C160.638 17.9111 160.966 18.1618 161.226 18.4854C161.49 18.8044 161.686 19.1849 161.813 19.627C161.946 20.069 162.012 20.5566 162.012 21.0898V21.7939H156.297V20.6113H160.385V20.4814C160.376 20.1852 160.316 19.9072 160.207 19.6475C160.102 19.3877 159.94 19.1781 159.722 19.0186C159.503 18.859 159.211 18.7793 158.847 18.7793C158.573 18.7793 158.329 18.8385 158.115 18.957C157.906 19.071 157.73 19.2373 157.589 19.4561C157.448 19.6748 157.338 19.9391 157.261 20.249C157.188 20.5544 157.151 20.8984 157.151 21.2812V21.5547C157.151 21.8783 157.195 22.179 157.281 22.457C157.372 22.7305 157.505 22.9697 157.678 23.1748C157.851 23.3799 158.061 23.5417 158.307 23.6602C158.553 23.7741 158.833 23.8311 159.147 23.8311C159.544 23.8311 159.897 23.7513 160.207 23.5918C160.517 23.4323 160.786 23.2067 161.014 22.915L161.882 23.7559C161.722 23.9883 161.515 24.2116 161.26 24.4258C161.005 24.6354 160.692 24.8063 160.323 24.9385C159.959 25.0706 159.535 25.1367 159.052 25.1367Z" fill="#1F1F1F"/>
<defs>
<clipPath id="clip0_710_6239">
<rect width="20" height="20" fill="white" transform="translate(12 10)"/>
</clipPath>
</defs>
</svg>